<?xml version="1.0" encoding="UTF-8"?>
<svg version="1.1" xmlns="http://www.w3.org/2000/svg" width="208" height="228">
<path d="M0 0 C68.64 0 137.28 0 208 0 C208 75.24 208 150.48 208 228 C139.36 228 70.72 228 0 228 C0 152.76 0 77.52 0 0 Z " fill="#FEFEFE" transform="translate(0,0)"/>
<path d="M0 0 C0.66 0.66 1.32 1.32 2 2 C1.875 4 1.875 4 1 6 C-1.0625 7.25 -1.0625 7.25 -3 8 C-1.31314164 12.34128626 -1.31314164 12.34128626 2.171875 15.171875 C11.57378058 17.92491917 21.82970561 16.04181333 31.1875 14 C49.47696561 10.06282833 63.8565827 13.14900982 79.6953125 22.796875 C83.99770893 25.66513929 87.84797082 28.85106189 91.6953125 32.3125 C94.06181995 34.3938471 94.06181995 34.3938471 98 34 C100.68300437 31.8027454 100.68300437 31.8027454 103.25 29 C104.14203125 28.071875 105.0340625 27.14375 105.953125 26.1875 C106.62859375 25.465625 107.3040625 24.74375 108 24 C108.99 24.33 109.98 24.66 111 25 C109.46356148 28.68069887 107.21849055 30.98775204 104.375 33.75 C103.55773437 34.54921875 102.74046875 35.3484375 101.8984375 36.171875 C101.27195312 36.77515625 100.64546875 37.3784375 100 38 C101.62960464 41.7606261 104.0369202 44.59302341 106.625 47.75 C112.30983492 54.92103243 116.32108635 62.6503432 120 71 C120.38285156 71.86753906 120.76570312 72.73507813 121.16015625 73.62890625 C125.49160888 84.89068308 122.71930572 98.84208285 119 110 C118.74711798 113.26639276 118.76872865 116.53732767 118.75 119.8125 C118.729375 120.70259766 118.70875 121.59269531 118.6875 122.50976562 C118.65653018 127.73205077 118.94016216 131.54868138 122 136 C125.06361777 137.43968727 125.06361777 137.43968727 128 138 C128.33 136.68 128.66 135.36 129 134 C130.875 133.375 130.875 133.375 133 133 C135 135 135 135 135.5 137.8125 C134.95649869 141.27732088 134.66514798 141.68125389 132.125 143.8125 C128.64809922 146.24633055 127.1271874 147.14017348 123 147.125 C121.948125 147.12886719 121.948125 147.12886719 120.875 147.1328125 C119 147 119 147 117 146 C115.50028794 145.88895479 113.99586241 145.83875809 112.49217224 145.81918335 C111.06873756 145.79761169 111.06873756 145.79761169 109.61654663 145.77560425 C108.5718924 145.76506012 107.52723816 145.75451599 106.45092773 145.74365234 C105.35318527 145.72904968 104.25544281 145.71444702 103.12443542 145.69940186 C92.98703569 145.57331391 82.84881713 145.50321227 72.71078396 145.45155907 C65.22216126 145.41270511 57.73504941 145.34446115 50.2470898 145.23701131 C44.33972895 145.15512058 38.43269204 145.12283487 32.52476692 145.10716629 C30.01729922 145.0930792 27.50986794 145.0634564 25.00277519 145.01786423 C21.48555769 144.95703496 17.97247116 144.95314713 14.45483398 144.96240234 C13.42434937 144.93161591 12.39386475 144.90082947 11.33215332 144.86911011 C5.13589389 144.95749144 2.23174281 146.1448814 -2.21592712 150.56484985 C-3.50483172 152.01927944 -4.77638329 153.49023093 -6 155 C-8 153 -8 153 -9 149.625 C-10.08091676 146.88553372 -10.79754507 146.11283837 -13.41796875 144.65234375 C-15.92430571 143.66607011 -18.42212056 142.77868403 -21 142 C-20.08552154 140.91481889 -19.16829593 139.83195262 -18.25 138.75 C-17.73953125 138.14671875 -17.2290625 137.5434375 -16.703125 136.921875 C-15 135 -15 135 -12.92292786 133.55459595 C-9.83418774 129.45122672 -10.46841615 125.20244753 -10.5300293 120.20458984 C-10.5278389 119.10506485 -10.5256485 118.00553986 -10.52339172 116.87269592 C-10.52107851 113.23513808 -10.54734696 109.59838756 -10.57421875 105.9609375 C-10.57914086 103.43796038 -10.58244091 100.91497961 -10.58418274 98.39199829 C-10.59182695 93.10430456 -10.61186507 87.81688582 -10.64331055 82.52929688 C-10.68364168 75.73855792 -10.70100462 68.94796967 -10.71061993 62.15712547 C-10.71980464 55.69587348 -10.74048003 49.23465938 -10.76171875 42.7734375 C-10.7651145 41.53359478 -10.76851025 40.29375206 -10.7720089 39.01633835 C-10.78354082 35.52304629 -10.80205426 32.02986785 -10.82299805 28.53662109 C-10.82568695 27.49346237 -10.82837585 26.45030365 -10.83114624 25.37553406 C-10.83830154 24.42776596 -10.84545685 23.47999786 -10.85282898 22.50350952 C-10.85710246 21.67724752 -10.86137594 20.85098553 -10.86577892 19.99968529 C-10.87557529 17.9269249 -10.87557529 17.9269249 -12 16 C-12.58816159 11.17900335 -12.44590263 7.83235157 -10.125 3.5 C-6.90295736 -0.2906384 -4.86907815 -0.30431738 0 0 Z " fill="#FDFCFC" transform="translate(45,51)"/>
<path d="M0 0 C4.07959625 1.849049 6.49714836 4.53382209 9.3125 7.9375 C10.03663086 8.8049585 10.03663086 8.8049585 10.77539062 9.68994141 C19.37342262 20.16771671 25.55942166 29.55402506 25.3125 43.3125 C25.31572266 44.19873047 25.31894531 45.08496094 25.32226562 45.99804688 C25.27876094 51.4203125 24.61545277 56.39057641 23.45629883 61.68041992 C21.63063921 70.96110052 22.62052271 80.24487749 26 89 C26.33 89.99 26.66 90.98 27 92 C-7.98 92 -42.96 92 -79 92 C-76 87 -76 87 -73.25 84.8125 C-70.70877248 82.3105479 -70.70877248 82.3105479 -71.22739315 79.81011391 C-71.40492406 78.98450148 -71.58245497 78.15888905 -71.7653656 77.30825806 C-72.12641594 74.33898463 -72.31795245 72.624759 -70.9507618 69.9383049 C-69.2453204 67.89443425 -67.44233883 66.08031181 -65.50415039 64.25537109 C-64.80203934 63.55165375 -64.09992828 62.8479364 -63.37654114 62.12289429 C-61.05870105 59.81269342 -58.70442374 57.54385526 -56.34765625 55.2734375 C-54.72958101 53.67588735 -53.1139241 52.07588438 -51.50059509 50.47354126 C-47.25496967 46.26984563 -42.97735667 42.10022927 -38.69219971 37.93688965 C-34.32249746 33.67986557 -29.98390453 29.391393 -25.64257812 25.10546875 C-17.12518719 16.70592681 -8.57366789 8.34206327 0 0 Z " fill="#FEFEFD" transform="translate(131,102)"/>
<path d="M0 0 C0.66 0.66 1.32 1.32 2 2 C1.875 4 1.875 4 1 6 C-1.0625 7.25 -1.0625 7.25 -3 8 C-1.31314164 12.34128626 -1.31314164 12.34128626 2.171875 15.171875 C11.57378058 17.92491917 21.82970561 16.04181333 31.1875 14 C49.47696561 10.06282833 63.8565827 13.14900982 79.6953125 22.796875 C83.99770893 25.66513929 87.84797082 28.85106189 91.6953125 32.3125 C94.06181995 34.3938471 94.06181995 34.3938471 98 34 C100.68300437 31.8027454 100.68300437 31.8027454 103.25 29 C104.14203125 28.071875 105.0340625 27.14375 105.953125 26.1875 C106.62859375 25.465625 107.3040625 24.74375 108 24 C108.99 24.33 109.98 24.66 111 25 C109.46356148 28.68069887 107.21849055 30.98775204 104.375 33.75 C103.55773437 34.54921875 102.74046875 35.3484375 101.8984375 36.171875 C101.27195312 36.77515625 100.64546875 37.3784375 100 38 C101.62960464 41.7606261 104.0369202 44.59302341 106.625 47.75 C112.30983492 54.92103243 116.32108635 62.6503432 120 71 C120.38285156 71.86753906 120.76570312 72.73507813 121.16015625 73.62890625 C125.49160888 84.89068308 122.71930572 98.84208285 119 110 C118.74711798 113.26639276 118.76872865 116.53732767 118.75 119.8125 C118.729375 120.70259766 118.70875 121.59269531 118.6875 122.50976562 C118.65653018 127.73205077 118.94016216 131.54868138 122 136 C125.06361777 137.43968727 125.06361777 137.43968727 128 138 C128.33 136.68 128.66 135.36 129 134 C130.875 133.375 130.875 133.375 133 133 C135 135 135 135 135.5 137.8125 C134.95649869 141.27732088 134.66514798 141.68125389 132.125 143.8125 C128.64809922 146.24633055 127.1271874 147.14017348 123 147.125 C121.948125 147.12886719 121.948125 147.12886719 120.875 147.1328125 C119 147 119 147 117 146 C115.50028794 145.88895479 113.99586241 145.83875809 112.49217224 145.81918335 C111.06873756 145.79761169 111.06873756 145.79761169 109.61654663 145.77560425 C108.5718924 145.76506012 107.52723816 145.75451599 106.45092773 145.74365234 C105.35318527 145.72904968 104.25544281 145.71444702 103.12443542 145.69940186 C92.98703569 145.57331391 82.84881713 145.50321227 72.71078396 145.45155907 C65.22216126 145.41270511 57.73504941 145.34446115 50.2470898 145.23701131 C44.33972895 145.15512058 38.43269204 145.12283487 32.52476692 145.10716629 C30.01729922 145.0930792 27.50986794 145.0634564 25.00277519 145.01786423 C21.48555769 144.95703496 17.97247116 144.95314713 14.45483398 144.96240234 C13.42434937 144.93161591 12.39386475 144.90082947 11.33215332 144.86911011 C5.13589389 144.95749144 2.23174281 146.1448814 -2.21592712 150.56484985 C-3.50483172 152.01927944 -4.77638329 153.49023093 -6 155 C-8 153 -8 153 -9 149.625 C-10.08091676 146.88553372 -10.79754507 146.11283837 -13.41796875 144.65234375 C-15.92430571 143.66607011 -18.42212056 142.77868403 -21 142 C-20.08552154 140.91481889 -19.16829593 139.83195262 -18.25 138.75 C-17.73953125 138.14671875 -17.2290625 137.5434375 -16.703125 136.921875 C-15 135 -15 135 -12.92292786 133.55459595 C-9.83418774 129.45122672 -10.46841615 125.20244753 -10.5300293 120.20458984 C-10.5278389 119.10506485 -10.5256485 118.00553986 -10.52339172 116.87269592 C-10.52107851 113.23513808 -10.54734696 109.59838756 -10.57421875 105.9609375 C-10.57914086 103.43796038 -10.58244091 100.91497961 -10.58418274 98.39199829 C-10.59182695 93.10430456 -10.61186507 87.81688582 -10.64331055 82.52929688 C-10.68364168 75.73855792 -10.70100462 68.94796967 -10.71061993 62.15712547 C-10.71980464 55.69587348 -10.74048003 49.23465938 -10.76171875 42.7734375 C-10.7651145 41.53359478 -10.76851025 40.29375206 -10.7720089 39.01633835 C-10.78354082 35.52304629 -10.80205426 32.02986785 -10.82299805 28.53662109 C-10.82568695 27.49346237 -10.82837585 26.45030365 -10.83114624 25.37553406 C-10.83830154 24.42776596 -10.84545685 23.47999786 -10.85282898 22.50350952 C-10.85710246 21.67724752 -10.86137594 20.85098553 -10.86577892 19.99968529 C-10.87557529 17.9269249 -10.87557529 17.9269249 -12 16 C-12.58816159 11.17900335 -12.44590263 7.83235157 -10.125 3.5 C-6.90295736 -0.2906384 -4.86907815 -0.30431738 0 0 Z M-9 21 C-9 56.97 -9 92.94 -9 130 C-5.64156855 126.71504876 -5.64156855 126.71504876 -2.5859375 123.1640625 C-1.15128295 121.34066284 0.00224762 120.20612241 2 119 C4.46280384 119.18754482 4.46280384 119.18754482 7.22554016 119.7361908 C11.31648372 120.21844811 11.31648372 120.21844811 15.13576317 118.96820259 C17.17720115 117.29448767 18.96294248 115.5239794 20.76635742 113.59594727 C21.80752213 112.55741104 21.80752213 112.55741104 22.86972046 111.49789429 C25.14459919 109.21469081 27.37407609 106.89205982 29.60546875 104.56640625 C31.17894654 102.97053403 32.75510468 101.37730047 34.33381653 99.78660583 C38.4724204 95.6022865 42.5737215 91.38319633 46.66821289 87.15576172 C50.8564267 82.84456808 55.07902056 78.56734343 59.29882812 74.28710938 C67.5665052 65.89091644 75.79516182 57.45757836 84 49 C82.15952633 44.94515609 79.51121097 42.54715544 76.125 39.75 C75.26358398 39.03082397 75.26358398 39.03082397 74.38476562 38.29711914 C64.41781522 30.10822684 55.78304038 23.6108495 42.5625 23.75 C41.67232178 23.75386719 40.78214355 23.75773437 39.86499023 23.76171875 C33.54355442 23.84376352 27.47940674 24.52356047 21.23828125 25.54296875 C10.23468776 27.09594877 0.92190624 25.96095312 -9 21 Z M79.14770508 57.45068359 C78.44354965 58.13687775 77.73939423 58.8230719 77.01390076 59.53005981 C74.67599851 61.813045 72.34670272 64.10451675 70.01953125 66.3984375 C69.22577276 67.18030048 68.43201427 67.96216347 67.6142025 68.76771927 C63.41345878 72.90908597 59.22052759 77.05820889 55.0324707 81.21240234 C51.56198523 84.65173941 48.0764455 88.07462385 44.57641602 91.48388672 C40.35455128 95.59632191 36.16025088 99.73503792 31.9843502 103.89412308 C30.38803767 105.47514937 28.78234012 107.04675804 27.16724586 108.60859299 C24.90625468 110.79909289 22.68241874 113.02176854 20.46411133 115.25537109 C19.79040497 115.89267151 19.11669861 116.52997192 18.4225769 117.18658447 C14.90221528 120.81206441 14.90221528 120.81206441 13.87817955 125.62131119 C14.14134088 128.31304188 14.14134088 128.31304188 14.69056225 130.85016823 C15 133 15 133 13.6015625 135.40234375 C12.94929688 135.90894531 12.29703125 136.41554688 11.625 136.9375 C8.54143067 139.36820482 8.54143067 139.36820482 7 143 C41.98 143 76.96 143 113 143 C112.34 141.02 111.68 139.04 111 137 C109.40176138 132.07584932 108.7281292 127.86541177 108.75 122.6875 C108.74226563 120.86798828 108.74226563 120.86798828 108.734375 119.01171875 C108.84373265 115.97080863 109.34422433 113.15790722 109.99609375 110.1875 C111.1298022 104.86252112 111.33224965 99.74365441 111.3125 94.3125 C111.33666992 92.96575195 111.33666992 92.96575195 111.36132812 91.59179688 C111.37131024 77.96621012 102.73350031 67.75266212 94.1875 57.8125 C93.32439209 56.80413086 93.32439209 56.80413086 92.44384766 55.77539062 C91.89905762 55.15470703 91.35426758 54.53402344 90.79296875 53.89453125 C90.3033667 53.33612549 89.81376465 52.77771973 89.30932617 52.20239258 C85.49459809 48.69921604 81.84700994 54.79217735 79.14770508 57.45068359 Z " fill="#BD3317" transform="translate(45,51)"/>
<path d="M0 0 C5.332816 4.2932544 9.52171347 8.78241347 13.625 14.25 C14.19186523 14.99999268 14.75873047 15.74998535 15.34277344 16.52270508 C23.46782126 27.46036024 26.7597928 36.32372954 26 50 C25.69260578 51.98336094 25.35791338 53.96263043 25 55.9375 C24.03552196 61.73130691 23.743729 67.38974834 23.6875 73.25 C23.67009766 74.07749756 23.65269531 74.90499512 23.63476562 75.75756836 C23.63935602 81.505315 24.45634192 86.78413418 27 92 C29.28705831 93.14352916 30.59264762 93.10334439 33.125 93.0625 C34.40375 93.041875 35.6825 93.02125 37 93 C37.33 91.35 37.66 89.7 38 88 C39.875 87.375 39.875 87.375 42 87 C44 89 44 89 44.5 91.8125 C43.95649869 95.27732088 43.66514798 95.68125389 41.125 97.8125 C37.64809922 100.24633055 36.1271874 101.14017348 32 101.125 C30.948125 101.12886719 30.948125 101.12886719 29.875 101.1328125 C28 101 28 101 26 100 C24.50028794 99.88895479 22.99586241 99.83875809 21.49217224 99.81918335 C20.54321579 99.80480225 19.59425934 99.79042114 18.61654663 99.77560425 C17.5718924 99.76506012 16.52723816 99.75451599 15.45092773 99.74365234 C14.35318527 99.72904968 13.25544281 99.71444702 12.12443542 99.69940186 C1.98703569 99.57331391 -8.15118287 99.50321227 -18.28921604 99.45155907 C-25.77783874 99.41270511 -33.26495059 99.34446115 -40.7529102 99.23701131 C-46.66027105 99.15512058 -52.56730796 99.12283487 -58.47523308 99.10716629 C-60.98270078 99.0930792 -63.49013206 99.0634564 -65.99722481 99.01786423 C-69.51444231 98.95703496 -73.02752884 98.95314713 -76.54516602 98.96240234 C-77.57565063 98.93161591 -78.60613525 98.90082947 -79.66784668 98.86911011 C-85.86410611 98.95749144 -88.76825719 100.1448814 -93.21592712 104.56484985 C-94.50483172 106.01927944 -95.77638329 107.49023093 -97 109 C-99.6855594 106.3144406 -100.06049974 103.62378672 -101 100 C-93.33333333 92.33333333 -85.66666667 84.66666667 -78 77 C-75.58444746 79.41555254 -75.07704472 81.47146744 -74.69140625 84.83203125 C-75.21100281 88.48236149 -77.6340711 90.24033979 -80.3359375 92.5546875 C-82.11708352 93.91581281 -82.11708352 93.91581281 -83 96 C-48.35 96.33 -13.7 96.66 22 97 C20.68 94.36 19.36 91.72 18 89 C16.83027718 84.9585767 16.83424074 81.00846239 16.8125 76.8125 C16.79832031 75.58144531 16.78414063 74.35039062 16.76953125 73.08203125 C16.84832306 70.00610565 17.33220863 67.1831682 17.9921875 64.1796875 C19.13050486 58.85687286 19.33224516 53.74241854 19.3125 48.3125 C19.33666992 46.96575195 19.33666992 46.96575195 19.36132812 45.59179688 C19.37168558 31.4538653 10.09165525 20.67848056 0.82446289 10.77124023 C-0.71875 9.06640625 -0.71875 9.06640625 -3 6 C-2.66639655 3.03366257 -2.15231519 2.15231519 0 0 Z " fill="#A42E14" transform="translate(136,97)"/>
<path d="M0 0 C0.66 0.66 1.32 1.32 2 2 C1.625 4.125 1.625 4.125 1 6 C-0.65 6.33 -2.3 6.66 -4 7 C-4 9.97 -4 12.94 -4 16 C2.24879393 19.26641501 6.78687921 20.19379748 13.8125 20.1875 C14.9403894 20.1884668 14.9403894 20.1884668 16.09106445 20.18945312 C21.03175481 20.14375888 25.79137447 19.72364119 30.6875 19 C45.49736967 16.832702 56.64746057 17.22781437 68.96142578 26.11914062 C75.98463626 31.36165795 82.65082652 36.95607524 89 43 C87.35 44.65 85.7 46.3 84 48 C83.47535156 47.48953125 82.95070313 46.9790625 82.41015625 46.453125 C76.96711459 41.34517908 71.27387916 36.87414826 65.1875 32.5625 C64.45861572 32.04268555 63.72973145 31.52287109 62.97875977 30.98730469 C55.97094049 26.09141991 51.08353684 24.6603133 42.5625 24.75 C41.67232178 24.75386719 40.78214355 24.75773437 39.86499023 24.76171875 C33.54355442 24.84376352 27.47940674 25.52356047 21.23828125 26.54296875 C10.35305594 28.07924301 -0.00135797 27.74898153 -9 21 C-8.67 56.64 -8.34 92.28 -8 129 C-5.69 126.36 -3.38 123.72 -1 121 C-0.01 120.01 0.98 119.02 2 118 C4.48046875 118.14453125 4.48046875 118.14453125 7.1875 118.8125 C8.53908203 119.13154297 8.53908203 119.13154297 9.91796875 119.45703125 C10.60503906 119.63621094 11.29210938 119.81539063 12 120 C7.5062909 125.3910378 2.74068012 130.38123274 -2.25 135.3125 C-3.32894531 136.38467773 -3.32894531 136.38467773 -4.4296875 137.47851562 C-5.75177353 138.7919363 -7.07489049 140.10432072 -8.39941406 141.4152832 C-9.6029187 142.6068556 -10.80244662 143.80244662 -12 145 C-14.97 144.01 -17.94 143.02 -21 142 C-15.18708159 135.13018734 -15.18708159 135.13018734 -12.92292786 133.55459595 C-9.83418774 129.45122672 -10.46841615 125.20244753 -10.5300293 120.20458984 C-10.5278389 119.10506485 -10.5256485 118.00553986 -10.52339172 116.87269592 C-10.52107851 113.23513808 -10.54734696 109.59838756 -10.57421875 105.9609375 C-10.57914086 103.43796038 -10.58244091 100.91497961 -10.58418274 98.39199829 C-10.59182695 93.10430456 -10.61186507 87.81688582 -10.64331055 82.52929688 C-10.68364168 75.73855792 -10.70100462 68.94796967 -10.71061993 62.15712547 C-10.71980464 55.69587348 -10.74048003 49.23465938 -10.76171875 42.7734375 C-10.7651145 41.53359478 -10.76851025 40.29375206 -10.7720089 39.01633835 C-10.78354082 35.52304629 -10.80205426 32.02986785 -10.82299805 28.53662109 C-10.82568695 27.49346237 -10.82837585 26.45030365 -10.83114624 25.37553406 C-10.83830154 24.42776596 -10.84545685 23.47999786 -10.85282898 22.50350952 C-10.85710246 21.67724752 -10.86137594 20.85098553 -10.86577892 19.99968529 C-10.87557529 17.9269249 -10.87557529 17.9269249 -12 16 C-12.58816159 11.17900335 -12.44590263 7.83235157 -10.125 3.5 C-6.90295736 -0.2906384 -4.86907815 -0.30431738 0 0 Z " fill="#A42F16" transform="translate(45,51)"/>
<path d="M0 0 C4.01829168 2.94056158 6.96106797 6.20914275 9.8125 10.25 C10.24046875 10.85336182 10.6684375 11.45672363 11.109375 12.07836914 C14.28258201 16.68222641 16.99351779 21.4421167 19.5 26.4375 C19.82589111 27.08686523 20.15178223 27.73623047 20.48754883 28.40527344 C27.13446943 42.17603958 25.74655908 56.76032276 21 71 C20.74711798 74.26639276 20.76872865 77.53732767 20.75 80.8125 C20.729375 81.70259766 20.70875 82.59269531 20.6875 83.50976562 C20.65661121 88.71838809 20.90699195 92.58242359 24 97 C27.5693717 98.44967902 27.5693717 98.44967902 31 99 C30.67 99.66 30.34 100.32 30 101 C22.73607748 101.4842615 22.73607748 101.4842615 19.625 99.4375 C15.70124791 93.55187186 15.67686164 87.21800803 15.75 80.375 C15.75386719 79.49271729 15.75773437 78.61043457 15.76171875 77.70141602 C15.84138785 71.64158515 16.47547992 65.85982614 17.546875 59.890625 C19.5019407 47.41865413 16.95383475 37.43075213 10 27 C7.05394675 23.1929022 3.97629207 19.49858573 0.85058594 15.83813477 C0.25536133 15.14002686 -0.33986328 14.44191895 -0.953125 13.72265625 C-1.49098633 13.10140869 -2.02884766 12.48016113 -2.58300781 11.84008789 C-4.01862495 9.97581387 -5.02217626 8.13463995 -6 6 C-4.02 4.02 -2.04 2.04 0 0 Z " fill="#BE3317" transform="translate(143,90)"/>
<path d="M0 0 C0.99 0.33 1.98 0.66 3 1 C1.48082292 4.58803957 -0.63384496 6.86550067 -3.39453125 9.58984375 C-4.70454102 10.89018555 -4.70454102 10.89018555 -6.04101562 12.21679688 C-6.95560547 13.11462891 -7.87019531 14.01246094 -8.8125 14.9375 C-10.16698242 16.27844727 -10.16698242 16.27844727 -11.54882812 17.64648438 C-13.23966688 19.31993023 -14.93255578 20.99130905 -16.62817383 22.65991211 C-21.37266034 27.3409109 -26.06784791 32.07168657 -30.7746582 36.79052734 C-37.50944628 43.54168467 -44.24680471 50.29027098 -50.9856081 57.03742027 C-55.0554567 61.11248892 -59.12436444 65.18848798 -63.19116211 69.26660156 C-67.13693456 73.2232788 -71.08518052 77.17747248 -75.0351162 81.12999344 C-76.53379035 82.63050583 -78.03158865 84.13189356 -79.52846718 85.63419724 C-81.62901276 87.74205607 -83.73272264 89.84670935 -85.8371582 91.95068359 C-86.44574173 92.5628624 -87.05432526 93.1750412 -87.68135071 93.80577087 C-91.38556347 97.50126957 -95.21235753 100.999094 -99.18290997 104.40720558 C-101.99889664 106.87559612 -104.62591997 109.5182969 -107.25 112.1875 C-108.00410156 112.94836914 -108.00410156 112.94836914 -108.7734375 113.72460938 C-110.9479847 115.91908044 -113.11183436 118.11828634 -115.234375 120.36328125 C-117 122 -117 122 -119 122 C-118.47821327 117.85038777 -116.29527772 115.92530335 -113.40000916 113.03924561 C-112.91729555 112.55396873 -112.43458195 112.06869185 -111.93724066 111.56870961 C-110.3166884 109.94321293 -108.68564076 108.32867594 -107.05444336 106.71386719 C-105.8911048 105.55137476 -104.72842627 104.38822151 -103.56636047 103.22445679 C-100.40791432 100.0651487 -97.24029338 96.91518572 -94.07097316 93.76679134 C-90.76108694 90.47563887 -87.45967527 87.17600809 -84.15736389 83.8772583 C-77.90184498 77.63106955 -71.63871692 71.39256849 -65.37283474 65.15677762 C-58.24007858 58.05753519 -51.11582308 50.94978837 -43.99227703 43.84130621 C-29.33763904 29.21803925 -14.67233222 14.60551187 0 0 Z " fill="#7C3422" transform="translate(153,75)"/>
<path d="M0 0 C2.41555254 2.41555254 2.92295528 4.47146744 3.30859375 7.83203125 C2.78899719 11.48236149 0.3659289 13.24033979 -2.3359375 15.5546875 C-4.11708352 16.91581281 -4.11708352 16.91581281 -5 19 C29.98 19 64.96 19 101 19 C101 19.66 101 20.32 101 21 C100.44230738 20.9959358 99.88461475 20.9918716 99.31002235 20.98768425 C85.7036743 20.89198783 72.09815056 20.85262203 58.49146461 20.87302971 C51.91103259 20.88121508 45.33171349 20.87103 38.75146484 20.81835938 C32.39671607 20.76817793 26.04364008 20.76690911 19.68879318 20.79904556 C17.26877609 20.80278655 14.84866541 20.78912949 12.42885208 20.75750351 C-0.77892239 19.95778971 -0.77892239 19.95778971 -12.76983643 24.30621338 C-15.23763487 26.75051668 -17.19691319 29.0406814 -19 32 C-21.6855594 29.3144406 -22.06049974 26.62378672 -23 23 C-15.33333333 15.33333333 -7.66666667 7.66666667 0 0 Z " fill="#DD9074" transform="translate(58,174)"/>
<path d="M0 0 C0.89332031 0.22042969 1.78664063 0.44085938 2.70703125 0.66796875 C4.05861328 0.98701172 4.05861328 0.98701172 5.4375 1.3125 C6.12457031 1.49167969 6.81164063 1.67085937 7.51953125 1.85546875 C3.02582215 7.24650655 -1.73978863 12.23670149 -6.73046875 17.16796875 C-7.44976562 17.88275391 -8.1690625 18.59753906 -8.91015625 19.33398438 C-10.23224228 20.64740505 -11.55535924 21.95978947 -12.87988281 23.27075195 C-14.08338745 24.46232435 -15.28291537 25.65791537 -16.48046875 26.85546875 C-19.45046875 25.86546875 -22.42046875 24.87546875 -25.48046875 23.85546875 C-22.51523542 20.23933055 -19.65999291 16.88851122 -16.04296875 13.91796875 C-12.66830929 11.13443589 -9.87659263 8.02564353 -7.05859375 4.6875 C-6.5378125 4.08292969 -6.01703125 3.47835937 -5.48046875 2.85546875 C-5.02542969 2.26507813 -4.57039063 1.6746875 -4.1015625 1.06640625 C-2.48046875 -0.14453125 -2.48046875 -0.14453125 0 0 Z " fill="#F76F3C" transform="translate(49.48046875,169.14453125)"/>
<path d="M0 0 C-1.27631196 2.79579285 -2.59667708 4.84633334 -4.76821899 7.01545715 C-5.61324478 7.86677467 -5.61324478 7.86677467 -6.4753418 8.73529053 C-7.39947876 9.65099823 -7.39947876 9.65099823 -8.34228516 10.58520508 C-8.99296967 11.23778793 -9.64365417 11.89037079 -10.3140564 12.56272888 C-12.46753559 14.71991365 -14.62813565 16.86980908 -16.7890625 19.01953125 C-18.29198064 20.52125667 -19.79452863 22.02335261 -21.29672241 23.52580261 C-24.44945098 26.67696634 -27.60551165 29.8247412 -30.76416016 32.9699707 C-34.79732616 36.98621277 -38.82394489 41.00893934 -42.84827614 45.03403187 C-45.95365098 48.13913355 -49.06163526 51.24161229 -52.17048264 54.34323692 C-53.65491119 55.82449921 -55.13874887 57.3063539 -56.62196732 58.7888279 C-58.70593548 60.87060695 -60.79317751 62.94904821 -62.88134766 65.02661133 C-63.48529358 65.63101044 -64.0892395 66.23540955 -64.71148682 66.85812378 C-68.39800972 70.51755071 -72.20378711 73.98696551 -76.14626122 77.36944103 C-79.23542821 80.08668954 -82.11400478 83.00777758 -85 85.9375 C-85.58394531 86.52595703 -86.16789062 87.11441406 -86.76953125 87.72070312 C-88.18204805 89.14479793 -89.5913781 90.5720525 -91 92 C-91 89 -91 89 -89.61564064 87.24091053 C-88.96192167 86.5873593 -88.30820271 85.93380808 -87.63467407 85.26045227 C-86.88870468 84.50746857 -86.14273529 83.75448486 -85.37416077 82.97868347 C-84.54508713 82.15725357 -83.71601349 81.33582367 -82.86181641 80.48950195 C-81.99696121 79.62099609 -81.13210602 78.75249023 -80.24104309 77.85766602 C-77.86426906 75.4741623 -75.48094655 73.09759607 -73.09417391 70.72412896 C-70.60125305 68.24250465 -68.1160297 65.75319319 -65.62973022 63.26493835 C-61.45333346 59.08765813 -57.27098927 54.91640642 -53.08496094 50.7487793 C-48.2400643 45.92505799 -43.40406419 41.0925589 -38.57286513 36.25512153 C-33.93125899 31.60782816 -29.28401461 26.96621499 -24.63395309 22.32738304 C-22.65217268 20.35025641 -20.6723006 18.37124704 -18.69389725 16.39074135 C-15.93409612 13.62871336 -13.16602513 10.87506903 -10.39697266 8.12231445 C-9.57194748 7.29481186 -8.7469223 6.46730927 -7.89689636 5.61473083 C-6.7694828 4.49794449 -6.7694828 4.49794449 -5.61929321 3.3585968 C-4.63758368 2.37996658 -4.63758368 2.37996658 -3.63604164 1.38156605 C-2 0 -2 0 0 0 Z " fill="#5F2F22" transform="translate(130,102)"/>
<path d="M0 0 C-1.56086351 6.36352045 -3.25837153 12.68369407 -5 19 C-10.83761235 16.24474762 -15.29719456 12.26937698 -19 7 C-19 6.34 -19 5.68 -19 5 C-16.39741676 4.16142312 -13.79314353 3.32896656 -11.1875 2.5 C-10.08051758 2.14228516 -10.08051758 2.14228516 -8.95117188 1.77734375 C-5.86744804 0.80059864 -3.25504191 0 0 0 Z " fill="#FCBF3B" transform="translate(168,63)"/>
<path d="M0 0 C0.99 0.33 1.98 0.66 3 1 C1.43717018 4.76603869 -0.9063475 7.13639151 -3.7890625 9.984375 C-4.25234955 10.44483215 -4.7156366 10.90528931 -5.19296265 11.37969971 C-6.66565898 12.84125078 -8.14517403 14.29567168 -9.625 15.75 C-10.62806322 16.74302611 -11.63067257 17.73651089 -12.6328125 18.73046875 C-15.08330835 21.15897941 -17.5399667 23.58114675 -20 26 C-20.99 25.67 -21.98 25.34 -23 25 C-21.43717018 21.23396131 -19.0936525 18.86360849 -16.2109375 16.015625 C-15.74765045 15.55516785 -15.2843634 15.09471069 -14.80703735 14.62030029 C-13.33434102 13.15874922 -11.85482597 11.70432832 -10.375 10.25 C-9.37193678 9.25697389 -8.36932743 8.26348911 -7.3671875 7.26953125 C-4.91669165 4.84102059 -2.4600333 2.41885325 0 0 Z " fill="#6E3426" transform="translate(153,75)"/>
<path d="M0 0 C1.69752187 0.25245197 3.38471545 0.57645775 5.0625 0.9375 C5.98160156 1.13214844 6.90070312 1.32679688 7.84765625 1.52734375 C8.91306641 1.76130859 8.91306641 1.76130859 10 2 C9.09515208 3.15518918 8.1755794 4.29885406 7.25 5.4375 C6.73953125 6.07558594 6.2290625 6.71367187 5.703125 7.37109375 C3.74851326 9.24052746 2.67001698 9.71245971 0 10 C-2.354248 9.411438 -4.69342986 8.75407101 -7 8 C-6.02133662 6.85373678 -5.04205413 5.70800212 -4.0625 4.5625 C-3.51722656 3.92441406 -2.97195312 3.28632813 -2.41015625 2.62890625 C-1.63204305 1.73008851 -0.84063472 0.84063472 0 0 Z " fill="#F9B33E" transform="translate(47,169)"/>
<path d="M0 0 C1.91773923 3.32408133 3.07738995 6.13050274 3 10 C0.87667922 12.43297173 -1.37273466 14.06412027 -4 16 C-4.99 13.03 -5.98 10.06 -7 7 C-4.66666667 4.66666667 -2.33333333 2.33333333 0 0 Z " fill="#F56A3E" transform="translate(42,190)"/>
<path d="M0 0 C0 2 0 2 -1.57421875 3.69140625 C-2.27160156 4.30886719 -2.96898437 4.92632812 -3.6875 5.5625 C-4.37199219 6.18253906 -5.05648437 6.80257812 -5.76171875 7.44140625 C-8.21752262 9.15146863 -10.05716611 9.6237708 -13 10 C-13.99 8.68 -14.98 7.36 -16 6 C-11.05 4.515 -11.05 4.515 -6 3 C-6 2.34 -6 1.68 -6 1 C-3 0 -3 0 0 0 Z " fill="#FCD778" transform="translate(168,63)"/>
<path d="M0 0 C-0.51776621 4.10447392 -2.64627444 5.95699523 -5.5625 8.75 C-6.80193359 9.94882813 -6.80193359 9.94882813 -8.06640625 11.171875 C-8.70449219 11.77515625 -9.34257812 12.3784375 -10 13 C-10.99 12.67 -11.98 12.34 -13 12 C-11.53424802 8.62801098 -9.64818479 6.35012996 -7.0625 3.75 C-6.37285156 3.04359375 -5.68320313 2.3371875 -4.97265625 1.609375 C-3 0 -3 0 0 0 Z " fill="#641C0B" transform="translate(143,88)"/>
<path d="M0 0 C4.455 0.99 4.455 0.99 9 2 C7 6 7 6 5 8 C2.03 7.01 -0.94 6.02 -4 5 C-2.68 3.35 -1.36 1.7 0 0 Z " fill="#F9AE40" transform="translate(28,188)"/>
<path d="M0 0 C-2.97 1.32 -5.94 2.64 -9 4 C-6.525 5.98 -6.525 5.98 -4 8 C-4.99 8.66 -5.98 9.32 -7 10 C-11.875 5.375 -11.875 5.375 -13 2 C-11.39935157 1.46845258 -9.79431126 0.95011647 -8.1875 0.4375 C-7.29417969 0.14746094 -6.40085938 -0.14257812 -5.48046875 -0.44140625 C-3 -1 -3 -1 0 0 Z " fill="#FAC758" transform="translate(162,66)"/>
<path d="M0 0 C3.3 0.66 6.6 1.32 10 2 C9.01 3.485 9.01 3.485 8 5 C4.37 4.67 0.74 4.34 -3 4 C-2.01 2.68 -1.02 1.36 0 0 Z " fill="#F8BB49" transform="translate(47,169)"/>
<path d="M0 0 C2.29633824 3.44450737 2.54016485 5.93812283 3 10 C2.01 10.33 1.02 10.66 0 11 C-0.12375 9.865625 -0.2475 8.73125 -0.375 7.5625 C-0.58125 6.386875 -0.7875 5.21125 -1 4 C-1.66 3.67 -2.32 3.34 -3 3 C-2.01 2.01 -1.02 1.02 0 0 Z " fill="#ED6C3B" transform="translate(51,181)"/>
<path d="M0 0 C1.88391785 3.26545761 2.49287967 6.28111761 3 10 C2.01 10.66 1.02 11.32 0 12 C-0.1953125 9.94921875 -0.390625 7.8984375 -0.5859375 5.84765625 C-0.72257812 5.23792969 -0.85921875 4.62820312 -1 4 C-1.66 3.67 -2.32 3.34 -3 3 C-2.01 2.01 -1.02 1.02 0 0 Z " fill="#EC693B" transform="translate(42,190)"/>
<path d="M0 0 C3.3 0.66 6.6 1.32 10 2 C9.01 2.99 8.02 3.98 7 5 C4.36 4.01 1.72 3.02 -1 2 C-0.67 1.34 -0.34 0.68 0 0 Z " fill="#F96E3F" transform="translate(30,186)"/>
<path d="M0 0 C2.64 0.99 5.28 1.98 8 3 C8 3.66 8 4.32 8 5 C0.25 4.25 0.25 4.25 -2 2 C-1.34 1.34 -0.68 0.68 0 0 Z " fill="#FAB63A" transform="translate(33,183)"/>
<path d="M0 0 C0.66 0 1.32 0 2 0 C2.33 2.97 2.66 5.94 3 9 C2.01 9.495 2.01 9.495 1 10 C0.63883954 8.5225254 0.28624952 7.04295325 -0.0625 5.5625 C-0.25972656 4.73878906 -0.45695312 3.91507813 -0.66015625 3.06640625 C-0.82837891 2.04353516 -0.82837891 2.04353516 -1 1 C-0.67 0.67 -0.34 0.34 0 0 Z " fill="#FAB431" transform="translate(39,194)"/>
<path d="M0 0 C2.3431213 0.25561323 4.67843403 0.59270772 7 1 C7.33 1.66 7.66 2.32 8 3 C7.34 3.66 6.68 4.32 6 5 C3.69 4.34 1.38 3.68 -1 3 C-0.67 2.01 -0.34 1.02 0 0 Z " fill="#F77149" transform="translate(27,191)"/>
<path d="M0 0 C1.08667969 0.29197266 1.08667969 0.29197266 2.1953125 0.58984375 C2.74960937 0.74582031 3.30390625 0.90179688 3.875 1.0625 C2.885 2.0525 1.895 3.0425 0.875 4.0625 C-1.435 3.4025 -3.745 2.7425 -6.125 2.0625 C-6.125 1.4025 -6.125 0.7425 -6.125 0.0625 C-3.57797384 -1.21101308 -2.6967055 -0.73941925 0 0 Z " fill="#F86A39" transform="translate(50.125,172.9375)"/>
<path d="M0 0 C0.66 0 1.32 0 2 0 C2.185625 1.7015625 2.185625 1.7015625 2.375 3.4375 C2.684375 5.2009375 2.684375 5.2009375 3 7 C3.66 7.33 4.32 7.66 5 8 C3.02 8.99 3.02 8.99 1 10 C0.67 6.7 0.34 3.4 0 0 Z " fill="#FBB737" transform="translate(48,185)"/>
<path d="M0 0 C0.99 0.33 1.98 0.66 3 1 C3.33 3.31 3.66 5.62 4 8 C3.01 8 2.02 8 1 8 C0.67 5.36 0.34 2.72 0 0 Z " fill="#FBB731" transform="translate(43,190)"/>
<path d="M0 0 C0.33 2.97 0.66 5.94 1 9 C0.01 9.495 0.01 9.495 -1 10 C-1.66 7.03 -2.32 4.06 -3 1 C-1 0 -1 0 0 0 Z " fill="#FBB632" transform="translate(55,180)"/>
<path d="M0 0 C2.64 0.66 5.28 1.32 8 2 C8 2.66 8 3.32 8 4 C5.03 3.67 2.06 3.34 -1 3 C-0.67 2.01 -0.34 1.02 0 0 Z " fill="#FAB532" transform="translate(38,179)"/>
<path d="M0 0 C1.61949011 2.57213134 2.04408751 3.67669159 1.625 6.75 C1.41875 7.4925 1.2125 8.235 1 9 C0.34 8.67 -0.32 8.34 -1 8 C-1.75 5.0625 -1.75 5.0625 -2 2 C-1.34 1.34 -0.68 0.68 0 0 Z " fill="#FCBC34" transform="translate(59,176)"/>
</svg>
